<?xml version="1.0" encoding="UTF-8" standalone="no"?><!DOCTYPE svg PUBLIC "-//W3C//DTD SVG 1.1//EN" "http://www.w3.org/Graphics/SVG/1.1/DTD/svg11.dtd"><svg width="100%" height="100%" viewBox="0 0 2352 716" version="1.1" xmlns="http://www.w3.org/2000/svg" xmlns:xlink="http://www.w3.org/1999/xlink" xml:space="preserve" xmlns:serif="http://www.serif.com/" style="fill-rule:evenodd;clip-rule:evenodd;stroke-linecap:round;"><rect id="アートボード1" x="0" y="0" width="2351.706" height="715.263" style="fill:none;"/><path d="M670.768,223.904l0,268.224c0,98.691 -80.125,178.816 -178.816,178.816l-268.224,0c-98.691,0 -178.816,-80.125 -178.816,-178.816l0,-268.224c0,-98.691 80.125,-178.816 178.816,-178.816l268.224,0c98.691,0 178.816,80.125 178.816,178.816Z" style="fill:#6366f1;"/><path d="M223.728,469.776c89.408,74.507 178.816,74.507 268.224,0" style="fill:none;fill-rule:nonzero;stroke:#fff;stroke-width:44.7px;"/><circle cx="246.08" cy="290.96" r="67.056" style="fill:#fff;"/><circle cx="469.6" cy="290.96" r="67.056" style="fill:#fff;"/><g transform="matrix(5.382667,0,0,5.382667,-3698.834333,-3294.590995)"><text x="818.778px" y="658.903px" style="font-family:'Bauhaus93', 'Bauhaus 93', fantasy;font-size:50px;fill-opacity:0.75;">Created with</text><g transform="matrix(50,0,0,50,1024.320178,696.874201)"></g><text x="906.547px" y="696.874px" style="font-family:'Bauhaus93', 'Bauhaus 93', fantasy;font-size:50px;fill-opacity:0.75;">EDBB</text></g><text x="701.296px" y="566.917px" style="font-family:'Bauhaus93', 'Bauhaus 93', fantasy;font-size:147.015px;fill:#898989;fill-opacity:0.64;">Easy Discord Bot Builder</text><g><g transform="matrix(73.874987,0,0,73.874987,2283.163587,653.174004)"></g><text x="1457.373px" y="653.174px" style="font-family:'Bauhaus93', 'Bauhaus 93', fantasy;font-size:73.875px;fill:#898989;fill-opacity:0.64;">https://himais0giiiin.com</text><g transform="matrix(73.874987,0,0,73.874987,1688.576051,653.18975)"></g><text x="1637.354px" y="653.19px" style="font-family:'Bauhaus93', 'Bauhaus 93', fantasy;font-size:73.875px;fill:#898989;fill-opacity:0.64;">//</text></g></svg>